<mxfile host="app.diagrams.net" modified="2024-05-15T11:23:50.556Z" agent="Mozilla/5.0 (Macintosh; Intel Mac OS X 10_15_7) AppleWebKit/537.36 (KHTML, like Gecko) Chrome/124.0.0.0 Safari/537.36" version="24.4.0" etag="6qz7EnvyAT2R1R4tfv7G" type="github">
  <diagram name="Page-1" id="Lv-E5ytWmqJM7705NPh1">
    <mxGraphModel>
      <root>
        <mxCell id="0" />
        <mxCell id="1" parent="0" />
      </root>
    </mxGraphModel>
  </diagram>
</mxfile>
